<?xml version="1.0" encoding="UTF-8" standalone="no"?>
<!-- Generator: $$$/GeneralStr/196=Adobe Illustrator 27.6.0, SVG Export Plug-In . SVG Version: 6.00 Build 0)  -->

<svg
   version="1.1"
   id="Livello_1"
   x="0px"
   y="0px"
   viewBox="0 0 40 40"
   style="enable-background:new 0 0 40 40;"
   xml:space="preserve"
   sodipodi:docname="icon_scretch_trasp.svg"
   inkscape:version="1.3 (0e150ed6c4, 2023-07-21)"
   xmlns:inkscape="http://www.inkscape.org/namespaces/inkscape"
   xmlns:sodipodi="http://sodipodi.sourceforge.net/DTD/sodipodi-0.dtd"
   xmlns="http://www.w3.org/2000/svg"
   xmlns:svg="http://www.w3.org/2000/svg"><defs
   id="defs7" /><sodipodi:namedview
   id="namedview7"
   pagecolor="#ffffff"
   bordercolor="#000000"
   borderopacity="0.25"
   inkscape:showpageshadow="2"
   inkscape:pageopacity="0.0"
   inkscape:pagecheckerboard="0"
   inkscape:deskcolor="#d1d1d1"
   inkscape:zoom="13.075"
   inkscape:cx="19.961759"
   inkscape:cy="20"
   inkscape:window-width="1362"
   inkscape:window-height="729"
   inkscape:window-x="0"
   inkscape:window-y="0"
   inkscape:window-maximized="1"
   inkscape:current-layer="Livello_1" />&#10;<style
   type="text/css"
   id="style1">&#10;	.st0{fill:#39A935;}&#10;	.st1{fill:#FFFFFF;}&#10;</style>&#10;<g
   id="g7">&#10;	&#10;	<g
   id="g6">&#10;		<path
   d="M35.7,16.6c-0.2-1.4-0.8-2.7-0.9-4.1c-0.1-1.1,0.3-2.2,0.3-3.2c0-1.4-0.6-2.7-1.5-3.7c-0.3-0.4-0.7-0.7-1.2-0.9    c-2.4-1.4-4.4,0.1-6.9,0.3c-1.3,0.1-2.6-0.6-3.9-0.7c-1.7-0.1-3.4,0.6-5.1,0.3C15.3,4.4,14.2,4,13,3.8c-2.1-0.3-4.2,0.4-5.7,1.8    c-2,1.9-2.5,4-2.9,6.6c-0.2,1.2-0.5,2.4-0.4,3.6c0.1,1.3,0.5,2.6,0.5,3.9c0,2-0.9,3.8-0.6,5.8c0.3,2.1,0.8,4.6,1.8,6.5    c1.3,2.5,4.2,4.3,7.1,4c1-0.1,1.9-0.3,2.8-0.7c1.3-0.6,2.5-1.4,4.1-1.3c1.2,0.1,2.3,0.6,3.5,0.7c1.1,0.1,2.3-0.1,3.5,0    c2.2,0.3,4.3,0.8,6.1-0.7c2-1.6,2-3.5,2.3-5.8c0.2-1.4,0.8-2.8,0.9-4.3c0.1-1.2-0.4-2.3-0.4-3.5C35.3,19.3,35.9,17.9,35.7,16.6z"
   id="path1" />&#10;		<path
   class="st1"
   d="M33.6,16.5c-0.2-1.3-1.5-2.3-1.6-3.6c-0.2-1.7,1.6-3.1,0.7-4.9c-0.2-0.3-0.4-0.6-0.7-0.9    c-0.3-0.3-0.6-0.6-1-0.8c-2.1-1-4,1.4-6.1,0.9c-1.3-0.3-2.6-1.1-4-1.1c-1.5,0-2.9,0.9-4.4,0.7c-1-0.1-1.9-0.6-2.9-0.9    c-1.3-0.4-2.7-0.2-3.9,0.4c-2.5,1.4-3,3.7-3.4,6.2c-0.2,1.1-0.4,2.2-0.3,3.4c0.1,1.4,0.9,2.6,0.8,4c0,1-0.6,1.9-0.8,2.9    c-0.3,1.1-0.2,2.1,0,3.2c0.3,1.6,0.6,3.4,1.4,4.9c1.2,2.3,3.8,3.8,6.3,3c1.2-0.3,2.1-1.2,3-1.9c0.6-0.4,1.3-0.9,2.1-0.8    c1.4,0.2,2.5,1.2,3.8,1.5c1.5,0.3,3-0.1,4.4,0c1.5,0.2,3,0.8,4.3-0.3c1.8-1.5,1.1-3.3,1.5-5.3c0.3-1.2,1-2.3,0.8-3.5    c-0.1-1.1-0.9-2.1-0.9-3.2C32.7,19,33.8,17.9,33.6,16.5z"
   id="path2" />&#10;		<path
   d="M27.2,22.4c-0.2-1.2-1.1-2.2-2.2-2.6c-0.9-0.3-1.6-0.2-2.4-0.7c-1.1-0.7-1.9-1.9-3.2-1.9c-2-0.1-3.6,1.8-3.3,3.8    c0.1,0.9,0.6,1.6,0.7,2.5c0.2,1,0,2,0.6,2.9c0.7,1.1,2,1.6,2.9,2.4c0.7,0.6,1.4,1.4,2.2,1.7c1.8,0.7,3.8-0.6,4.2-2.4    c0.2-0.9-0.1-1.8,0.1-2.7C26.8,24.3,27.4,23.4,27.2,22.4z M28.1,13c-0.4-2.3-2.6-2.4-4.2-3.3c-1-0.5-1.9-1.3-3.1-1.2    c-1.8,0.1-3.2,2-2.9,3.8c0.4,2.2,2.8,2.5,4.5,3.4c0.9,0.5,1.6,1.1,2.7,1.1C26.7,16.6,28.4,14.8,28.1,13 M31.1,29.9    c-0.1-2-3.2-1.8-3,0.2C28.2,32.1,31.2,31.9,31.1,29.9 M31.4,9c-0.1-2-3.2-1.8-3,0.2C28.5,11.2,31.5,11,31.4,9 M32.1,23.9    c-0.1-2-3.2-1.8-3,0.2C29.2,26.1,32.2,25.9,32.1,23.9 M32.1,16.8c-0.1-2-3.2-1.8-3,0.2C29.2,18.9,32.2,18.7,32.1,16.8"
   id="path3" />&#10;		<path
   class="st1"
   d="M20.4,20.2c-0.1-1.7-2.7-1.5-2.6,0.2C17.9,22.1,20.5,21.9,20.4,20.2z M21.3,24.6c-0.1-1.7-2.7-1.5-2.6,0.2    C18.8,26.4,21.4,26.2,21.3,24.6 M22.2,11.5c-0.1-1.7-2.7-1.5-2.6,0.2C19.8,13.4,22.3,13.2,22.2,11.5 M24.7,27.3    c-0.1-1.7-2.7-1.5-2.6,0.2C22.3,29.2,24.8,28.9,24.7,27.3 M25.3,22.7c-0.1-1.7-2.7-1.5-2.6,0.2C22.9,24.6,25.4,24.4,25.3,22.7     M26.2,13.4c-0.1-1.7-2.7-1.5-2.6,0.2C23.7,15.2,26.3,15,26.2,13.4"
   id="path4" />&#10;		<path
   d="M15.2,10.7C14.8,8.1,11.6,7.2,9.8,9c-1.2,1.2-0.7,2.6-1.1,4.1c-0.2,1-0.7,1.9-0.5,3c0.5,2.4,3.6,3.3,5.3,1.6    c1.3-1.3,0.8-2.6,1.2-4.2C14.9,12.6,15.4,11.7,15.2,10.7z M15.3,28.3c-0.2-0.8-0.6-1.6-0.8-2.4c-0.4-1.7-0.1-3-1.7-4.1    c-2.2-1.6-5.2,0.8-4.8,3.3c0.1,0.8,0.6,1.5,0.8,2.3c0.4,1.7,0.1,3.1,1.8,4.2C12.7,32.9,15.8,30.7,15.3,28.3"
   id="path5" />&#10;		<path
   class="st1"
   d="M12.4,24.3c-0.1-1.7-2.7-1.5-2.6,0.2C10,26.2,12.5,25.9,12.4,24.3z M12.6,15.4c-0.1-1.7-2.7-1.5-2.6,0.2    C10.2,17.3,12.7,17.1,12.6,15.4 M13.4,11.1c-0.1-1.7-2.7-1.5-2.6,0.2C10.9,13,13.5,12.7,13.4,11.1 M13.4,28.6    c-0.1-1.7-2.7-1.5-2.6,0.2C11,30.5,13.6,30.3,13.4,28.6"
   id="path6" />&#10;	</g>&#10;</g>&#10;<path
   style="fill:none;stroke-width:0.585316;stroke-opacity:0.280042"
   d="M 0.03824092,20 V 0 H 20 39.961759 V 20 40 H 20 0.03824092 Z M 13.905156,35.860528 c 0.889393,-0.175767 1.430677,-0.371213 2.461957,-0.888959 1.155557,-0.580139 2.025337,-0.864322 2.791587,-0.912096 0.672599,-0.04193 0.93579,0.0013 2.90631,0.477182 0.750712,0.181305 0.924672,0.193639 2.668752,0.189202 1.502946,-0.0038 2.090326,0.02668 3.021033,0.156878 1.500788,0.209949 2.972038,0.178252 3.696278,-0.07963 0.662766,-0.235995 1.347886,-0.697383 1.9385,-1.305463 0.93362,-0.96123 1.319899,-1.992734 1.632014,-4.35806 0.113702,-0.861679 0.323866,-1.96076 0.537501,-2.810933 0.192938,-0.767811 0.390445,-1.733955 0.438906,-2.146989 0.081,-0.690352 0.07213,-0.8493 -0.109889,-1.969181 -0.359331,-2.210847 -0.379527,-2.494143 -0.250412,-3.512667 0.201741,-1.591446 0.172676,-1.952905 -0.308596,-3.837713 -0.53064,-2.078147 -0.578308,-2.655273 -0.34713,-4.202809 0.189027,-1.2653711 0.197202,-1.6443509 0.05041,-2.3369849 C 34.710923,6.8055855 33.685678,5.3085414 32.566851,4.722194 31.037836,3.9208771 30.150961,3.8896367 27.606483,4.5474638 26.333707,4.8765164 25.45813,5.0037686 24.86628,4.9457119 24.608564,4.9204316 23.851536,4.7609756 23.183994,4.5913653 21.72749,4.2212935 21.050593,4.1953416 19.370076,4.4451424 18.730617,4.5401949 17.915175,4.6062642 17.399618,4.604794 16.602762,4.6025218 16.372681,4.5656527 14.952199,4.2126102 12.987945,3.7244202 12.296879,3.6347407 11.329982,3.7425561 8.1266822,4.0997452 5.7103474,6.3910785 4.8121024,9.9232535 4.7131896,10.312209 4.486628,11.447964 4.3086321,12.447154 c -0.4132691,2.31991 -0.432108,3.260892 -0.1014475,5.067186 0.3047354,1.664674 0.2986882,2.807875 -0.023465,4.435947 -0.4601253,2.325344 -0.4737754,2.706729 -0.162872,4.550669 0.8769464,5.20109 2.4587149,7.765408 5.5776228,9.042282 1.3549526,0.554715 2.6299736,0.64865 4.3066856,0.31729 z"
   id="path7" /><path
   style="fill:none;stroke-width:0.585316;stroke-opacity:0.280042"
   d="M 0.03824092,20 V 0 H 20 39.961759 V 20 40 H 20 0.03824092 Z M 13.905156,35.860528 c 0.889393,-0.175767 1.430677,-0.371213 2.461957,-0.888959 1.155557,-0.580139 2.025337,-0.864322 2.791587,-0.912096 0.672599,-0.04193 0.93579,0.0013 2.90631,0.477182 0.750712,0.181305 0.924672,0.193639 2.668752,0.189202 1.502946,-0.0038 2.090326,0.02668 3.021033,0.156878 1.500788,0.209949 2.972038,0.178252 3.696278,-0.07963 0.662766,-0.235995 1.347886,-0.697383 1.9385,-1.305463 0.93362,-0.96123 1.319899,-1.992734 1.632014,-4.35806 0.113702,-0.861679 0.323866,-1.96076 0.537501,-2.810933 0.192938,-0.767811 0.390445,-1.733955 0.438906,-2.146989 0.081,-0.690352 0.07213,-0.8493 -0.109889,-1.969181 -0.359331,-2.210847 -0.379527,-2.494143 -0.250412,-3.512667 0.201741,-1.591446 0.172676,-1.952905 -0.308596,-3.837713 -0.53064,-2.078147 -0.578308,-2.655273 -0.34713,-4.202809 0.189027,-1.2653711 0.197202,-1.6443509 0.05041,-2.3369849 C 34.710923,6.8055855 33.685678,5.3085414 32.566851,4.722194 31.037836,3.9208771 30.150961,3.8896367 27.606483,4.5474638 26.333707,4.8765164 25.45813,5.0037686 24.86628,4.9457119 24.608564,4.9204316 23.851536,4.7609756 23.183994,4.5913653 21.72749,4.2212935 21.050593,4.1953416 19.370076,4.4451424 18.730617,4.5401949 17.915175,4.6062642 17.399618,4.604794 16.602762,4.6025218 16.372681,4.5656527 14.952199,4.2126102 12.987945,3.7244202 12.296879,3.6347407 11.329982,3.7425561 8.1266822,4.0997452 5.7103474,6.3910785 4.8121024,9.9232535 4.7131896,10.312209 4.486628,11.447964 4.3086321,12.447154 c -0.4132691,2.31991 -0.432108,3.260892 -0.1014475,5.067186 0.3047354,1.664674 0.2986882,2.807875 -0.023465,4.435947 -0.4601253,2.325344 -0.4737754,2.706729 -0.162872,4.550669 0.8769464,5.20109 2.4587149,7.765408 5.5776228,9.042282 1.3549526,0.554715 2.6299736,0.64865 4.3066856,0.31729 z"
   id="path8" /><path
   style="fill:none;stroke-width:0.585316;stroke-opacity:0.280042"
   d="M 0.03824092,20 V 0 H 20 39.961759 V 20 40 H 20 0.03824092 Z M 13.905156,35.860528 c 0.889393,-0.175767 1.430677,-0.371213 2.461957,-0.888959 1.155557,-0.580139 2.025337,-0.864322 2.791587,-0.912096 0.672599,-0.04193 0.93579,0.0013 2.90631,0.477182 0.750712,0.181305 0.924672,0.193639 2.668752,0.189202 1.502946,-0.0038 2.090326,0.02668 3.021033,0.156878 1.500788,0.209949 2.972038,0.178252 3.696278,-0.07963 0.662766,-0.235995 1.347886,-0.697383 1.9385,-1.305463 0.93362,-0.96123 1.319899,-1.992734 1.632014,-4.35806 0.113702,-0.861679 0.323866,-1.96076 0.537501,-2.810933 0.192938,-0.767811 0.390445,-1.733955 0.438906,-2.146989 0.081,-0.690352 0.07213,-0.8493 -0.109889,-1.969181 -0.359331,-2.210847 -0.379527,-2.494143 -0.250412,-3.512667 0.201741,-1.591446 0.172676,-1.952905 -0.308596,-3.837713 -0.53064,-2.078147 -0.578308,-2.655273 -0.34713,-4.202809 0.189027,-1.2653711 0.197202,-1.6443509 0.05041,-2.3369849 C 34.710923,6.8055855 33.685678,5.3085414 32.566851,4.722194 31.037836,3.9208771 30.150961,3.8896367 27.606483,4.5474638 26.333707,4.8765164 25.45813,5.0037686 24.86628,4.9457119 24.608564,4.9204316 23.851536,4.7609756 23.183994,4.5913653 21.72749,4.2212935 21.050593,4.1953416 19.370076,4.4451424 18.730617,4.5401949 17.915175,4.6062642 17.399618,4.604794 16.602762,4.6025218 16.372681,4.5656527 14.952199,4.2126102 12.987945,3.7244202 12.296879,3.6347407 11.329982,3.7425561 8.1266822,4.0997452 5.7103474,6.3910785 4.8121024,9.9232535 4.7131896,10.312209 4.486628,11.447964 4.3086321,12.447154 c -0.4132691,2.31991 -0.432108,3.260892 -0.1014475,5.067186 0.3047354,1.664674 0.2986882,2.807875 -0.023465,4.435947 -0.4601253,2.325344 -0.4737754,2.706729 -0.162872,4.550669 0.8769464,5.20109 2.4587149,7.765408 5.5776228,9.042282 1.3549526,0.554715 2.6299736,0.64865 4.3066856,0.31729 z"
   id="path9"
   inkscape:label="path9" /><path
   style="fill:none;stroke-width:0.585316;stroke-opacity:0.280042"
   d="M 0.03824092,20 V 0 H 20 39.961759 V 20 40 H 20 0.03824092 Z M 13.905156,35.860528 c 0.889393,-0.175767 1.430677,-0.371213 2.461957,-0.888959 1.155557,-0.580139 2.025337,-0.864322 2.791587,-0.912096 0.672599,-0.04193 0.93579,0.0013 2.90631,0.477182 0.750712,0.181305 0.924672,0.193639 2.668752,0.189202 1.502946,-0.0038 2.090326,0.02668 3.021033,0.156878 1.500788,0.209949 2.972038,0.178252 3.696278,-0.07963 0.662766,-0.235995 1.347886,-0.697383 1.9385,-1.305463 0.93362,-0.96123 1.319899,-1.992734 1.632014,-4.35806 0.113702,-0.861679 0.323866,-1.96076 0.537501,-2.810933 0.192938,-0.767811 0.390445,-1.733955 0.438906,-2.146989 0.081,-0.690352 0.07213,-0.8493 -0.109889,-1.969181 -0.359331,-2.210847 -0.379527,-2.494143 -0.250412,-3.512667 0.201741,-1.591446 0.172676,-1.952905 -0.308596,-3.837713 -0.53064,-2.078147 -0.578308,-2.655273 -0.34713,-4.202809 0.189027,-1.2653711 0.197202,-1.6443509 0.05041,-2.3369849 C 34.710923,6.8055855 33.685678,5.3085414 32.566851,4.722194 31.037836,3.9208771 30.150961,3.8896367 27.606483,4.5474638 26.333707,4.8765164 25.45813,5.0037686 24.86628,4.9457119 24.608564,4.9204316 23.851536,4.7609756 23.183994,4.5913653 21.72749,4.2212935 21.050593,4.1953416 19.370076,4.4451424 18.730617,4.5401949 17.915175,4.6062642 17.399618,4.604794 16.602762,4.6025218 16.372681,4.5656527 14.952199,4.2126102 12.987945,3.7244202 12.296879,3.6347407 11.329982,3.7425561 8.1266822,4.0997452 5.7103474,6.3910785 4.8121024,9.9232535 4.7131896,10.312209 4.486628,11.447964 4.3086321,12.447154 c -0.4132691,2.31991 -0.432108,3.260892 -0.1014475,5.067186 0.3047354,1.664674 0.2986882,2.807875 -0.023465,4.435947 -0.4601253,2.325344 -0.4737754,2.706729 -0.162872,4.550669 0.8769464,5.20109 2.4587149,7.765408 5.5776228,9.042282 1.3549526,0.554715 2.6299736,0.64865 4.3066856,0.31729 z"
   id="path10" /><path
   style="fill:none;stroke-width:0.585316;stroke-opacity:0.280042"
   d="M 0.03824092,20 V 0 H 20 39.961759 V 20 40 H 20 0.03824092 Z M 13.905156,35.860528 c 0.889393,-0.175767 1.430677,-0.371213 2.461957,-0.888959 1.155557,-0.580139 2.025337,-0.864322 2.791587,-0.912096 0.672599,-0.04193 0.93579,0.0013 2.90631,0.477182 0.750712,0.181305 0.924672,0.193639 2.668752,0.189202 1.502946,-0.0038 2.090326,0.02668 3.021033,0.156878 1.500788,0.209949 2.972038,0.178252 3.696278,-0.07963 0.662766,-0.235995 1.347886,-0.697383 1.9385,-1.305463 0.93362,-0.96123 1.319899,-1.992734 1.632014,-4.35806 0.113702,-0.861679 0.323866,-1.96076 0.537501,-2.810933 0.192938,-0.767811 0.390445,-1.733955 0.438906,-2.146989 0.081,-0.690352 0.07213,-0.8493 -0.109889,-1.969181 -0.359331,-2.210847 -0.379527,-2.494143 -0.250412,-3.512667 0.201741,-1.591446 0.172676,-1.952905 -0.308596,-3.837713 -0.53064,-2.078147 -0.578308,-2.655273 -0.34713,-4.202809 0.189027,-1.2653711 0.197202,-1.6443509 0.05041,-2.3369849 C 34.710923,6.8055855 33.685678,5.3085414 32.566851,4.722194 31.037836,3.9208771 30.150961,3.8896367 27.606483,4.5474638 26.333707,4.8765164 25.45813,5.0037686 24.86628,4.9457119 24.608564,4.9204316 23.851536,4.7609756 23.183994,4.5913653 21.72749,4.2212935 21.050593,4.1953416 19.370076,4.4451424 18.730617,4.5401949 17.915175,4.6062642 17.399618,4.604794 16.602762,4.6025218 16.372681,4.5656527 14.952199,4.2126102 12.987945,3.7244202 12.296879,3.6347407 11.329982,3.7425561 8.1266822,4.0997452 5.7103474,6.3910785 4.8121024,9.9232535 4.7131896,10.312209 4.486628,11.447964 4.3086321,12.447154 c -0.4132691,2.31991 -0.432108,3.260892 -0.1014475,5.067186 0.3047354,1.664674 0.2986882,2.807875 -0.023465,4.435947 -0.4601253,2.325344 -0.4737754,2.706729 -0.162872,4.550669 0.8769464,5.20109 2.4587149,7.765408 5.5776228,9.042282 1.3549526,0.554715 2.6299736,0.64865 4.3066856,0.31729 z"
   id="path11" /><path
   style="fill:none;stroke-width:0.585316;stroke-opacity:0.280042"
   d="M 0.03824092,20 V 0 H 20 39.961759 V 20 40 H 20 0.03824092 Z M 13.905156,35.860528 c 0.889393,-0.175767 1.430677,-0.371213 2.461957,-0.888959 1.155557,-0.580139 2.025337,-0.864322 2.791587,-0.912096 0.672599,-0.04193 0.93579,0.0013 2.90631,0.477182 0.750712,0.181305 0.924672,0.193639 2.668752,0.189202 1.502946,-0.0038 2.090326,0.02668 3.021033,0.156878 1.500788,0.209949 2.972038,0.178252 3.696278,-0.07963 0.662766,-0.235995 1.347886,-0.697383 1.9385,-1.305463 0.93362,-0.96123 1.319899,-1.992734 1.632014,-4.35806 0.113702,-0.861679 0.323866,-1.96076 0.537501,-2.810933 0.192938,-0.767811 0.390445,-1.733955 0.438906,-2.146989 0.081,-0.690352 0.07213,-0.8493 -0.109889,-1.969181 -0.359331,-2.210847 -0.379527,-2.494143 -0.250412,-3.512667 0.201741,-1.591446 0.172676,-1.952905 -0.308596,-3.837713 -0.53064,-2.078147 -0.578308,-2.655273 -0.34713,-4.202809 0.189027,-1.2653711 0.197202,-1.6443509 0.05041,-2.3369849 C 34.710923,6.8055855 33.685678,5.3085414 32.566851,4.722194 31.037836,3.9208771 30.150961,3.8896367 27.606483,4.5474638 26.333707,4.8765164 25.45813,5.0037686 24.86628,4.9457119 24.608564,4.9204316 23.851536,4.7609756 23.183994,4.5913653 21.72749,4.2212935 21.050593,4.1953416 19.370076,4.4451424 18.730617,4.5401949 17.915175,4.6062642 17.399618,4.604794 16.602762,4.6025218 16.372681,4.5656527 14.952199,4.2126102 12.987945,3.7244202 12.296879,3.6347407 11.329982,3.7425561 8.1266822,4.0997452 5.7103474,6.3910785 4.8121024,9.9232535 4.7131896,10.312209 4.486628,11.447964 4.3086321,12.447154 c -0.4132691,2.31991 -0.432108,3.260892 -0.1014475,5.067186 0.3047354,1.664674 0.2986882,2.807875 -0.023465,4.435947 -0.4601253,2.325344 -0.4737754,2.706729 -0.162872,4.550669 0.8769464,5.20109 2.4587149,7.765408 5.5776228,9.042282 1.3549526,0.554715 2.6299736,0.64865 4.3066856,0.31729 z"
   id="path12" /><path
   style="fill:none;stroke-width:0.585316;stroke-opacity:0.280042"
   d="M 0.03824092,20 V 0 H 20 39.961759 V 20 40 H 20 0.03824092 Z M 13.905156,35.860528 c 0.889393,-0.175767 1.430677,-0.371213 2.461957,-0.888959 1.155557,-0.580139 2.025337,-0.864322 2.791587,-0.912096 0.672599,-0.04193 0.93579,0.0013 2.90631,0.477182 0.750712,0.181305 0.924672,0.193639 2.668752,0.189202 1.502946,-0.0038 2.090326,0.02668 3.021033,0.156878 1.500788,0.209949 2.972038,0.178252 3.696278,-0.07963 0.662766,-0.235995 1.347886,-0.697383 1.9385,-1.305463 0.93362,-0.96123 1.319899,-1.992734 1.632014,-4.35806 0.113702,-0.861679 0.323866,-1.96076 0.537501,-2.810933 0.192938,-0.767811 0.390445,-1.733955 0.438906,-2.146989 0.081,-0.690352 0.07213,-0.8493 -0.109889,-1.969181 -0.359331,-2.210847 -0.379527,-2.494143 -0.250412,-3.512667 0.201741,-1.591446 0.172676,-1.952905 -0.308596,-3.837713 -0.53064,-2.078147 -0.578308,-2.655273 -0.34713,-4.202809 0.189027,-1.2653711 0.197202,-1.6443509 0.05041,-2.3369849 C 34.710923,6.8055855 33.685678,5.3085414 32.566851,4.722194 31.037836,3.9208771 30.150961,3.8896367 27.606483,4.5474638 26.333707,4.8765164 25.45813,5.0037686 24.86628,4.9457119 24.608564,4.9204316 23.851536,4.7609756 23.183994,4.5913653 21.72749,4.2212935 21.050593,4.1953416 19.370076,4.4451424 18.730617,4.5401949 17.915175,4.6062642 17.399618,4.604794 16.602762,4.6025218 16.372681,4.5656527 14.952199,4.2126102 12.987945,3.7244202 12.296879,3.6347407 11.329982,3.7425561 8.1266822,4.0997452 5.7103474,6.3910785 4.8121024,9.9232535 4.7131896,10.312209 4.486628,11.447964 4.3086321,12.447154 c -0.4132691,2.31991 -0.432108,3.260892 -0.1014475,5.067186 0.3047354,1.664674 0.2986882,2.807875 -0.023465,4.435947 -0.4601253,2.325344 -0.4737754,2.706729 -0.162872,4.550669 0.8769464,5.20109 2.4587149,7.765408 5.5776228,9.042282 1.3549526,0.554715 2.6299736,0.64865 4.3066856,0.31729 z"
   id="path13" /><path
   style="fill:none;stroke-width:0.585316;stroke-opacity:0.280042"
   d="M 0.03824092,20 V 0 H 20 39.961759 V 20 40 H 20 0.03824092 Z M 13.905156,35.860528 c 0.889393,-0.175767 1.430677,-0.371213 2.461957,-0.888959 1.155557,-0.580139 2.025337,-0.864322 2.791587,-0.912096 0.672599,-0.04193 0.93579,0.0013 2.90631,0.477182 0.750712,0.181305 0.924672,0.193639 2.668752,0.189202 1.502946,-0.0038 2.090326,0.02668 3.021033,0.156878 1.500788,0.209949 2.972038,0.178252 3.696278,-0.07963 0.662766,-0.235995 1.347886,-0.697383 1.9385,-1.305463 0.93362,-0.96123 1.319899,-1.992734 1.632014,-4.35806 0.113702,-0.861679 0.323866,-1.96076 0.537501,-2.810933 0.192938,-0.767811 0.390445,-1.733955 0.438906,-2.146989 0.081,-0.690352 0.07213,-0.8493 -0.109889,-1.969181 -0.359331,-2.210847 -0.379527,-2.494143 -0.250412,-3.512667 0.201741,-1.591446 0.172676,-1.952905 -0.308596,-3.837713 -0.53064,-2.078147 -0.578308,-2.655273 -0.34713,-4.202809 0.189027,-1.2653711 0.197202,-1.6443509 0.05041,-2.3369849 C 34.710923,6.8055855 33.685678,5.3085414 32.566851,4.722194 31.037836,3.9208771 30.150961,3.8896367 27.606483,4.5474638 26.333707,4.8765164 25.45813,5.0037686 24.86628,4.9457119 24.608564,4.9204316 23.851536,4.7609756 23.183994,4.5913653 21.72749,4.2212935 21.050593,4.1953416 19.370076,4.4451424 18.730617,4.5401949 17.915175,4.6062642 17.399618,4.604794 16.602762,4.6025218 16.372681,4.5656527 14.952199,4.2126102 12.987945,3.7244202 12.296879,3.6347407 11.329982,3.7425561 8.1266822,4.0997452 5.7103474,6.3910785 4.8121024,9.9232535 4.7131896,10.312209 4.486628,11.447964 4.3086321,12.447154 c -0.4132691,2.31991 -0.432108,3.260892 -0.1014475,5.067186 0.3047354,1.664674 0.2986882,2.807875 -0.023465,4.435947 -0.4601253,2.325344 -0.4737754,2.706729 -0.162872,4.550669 0.8769464,5.20109 2.4587149,7.765408 5.5776228,9.042282 1.3549526,0.554715 2.6299736,0.64865 4.3066856,0.31729 z"
   id="path14" /><path
   style="fill:none;stroke-width:0.585316;stroke-opacity:0.280042"
   d="M 0.03824092,20 V 0 H 20 39.961759 V 20 40 H 20 0.03824092 Z M 13.905156,35.860528 c 0.889393,-0.175767 1.430677,-0.371213 2.461957,-0.888959 1.155557,-0.580139 2.025337,-0.864322 2.791587,-0.912096 0.672599,-0.04193 0.93579,0.0013 2.90631,0.477182 0.750712,0.181305 0.924672,0.193639 2.668752,0.189202 1.502946,-0.0038 2.090326,0.02668 3.021033,0.156878 1.500788,0.209949 2.972038,0.178252 3.696278,-0.07963 0.662766,-0.235995 1.347886,-0.697383 1.9385,-1.305463 0.93362,-0.96123 1.319899,-1.992734 1.632014,-4.35806 0.113702,-0.861679 0.323866,-1.96076 0.537501,-2.810933 0.192938,-0.767811 0.390445,-1.733955 0.438906,-2.146989 0.081,-0.690352 0.07213,-0.8493 -0.109889,-1.969181 -0.359331,-2.210847 -0.379527,-2.494143 -0.250412,-3.512667 0.201741,-1.591446 0.172676,-1.952905 -0.308596,-3.837713 -0.53064,-2.078147 -0.578308,-2.655273 -0.34713,-4.202809 0.189027,-1.2653711 0.197202,-1.6443509 0.05041,-2.3369849 C 34.710923,6.8055855 33.685678,5.3085414 32.566851,4.722194 31.037836,3.9208771 30.150961,3.8896367 27.606483,4.5474638 26.333707,4.8765164 25.45813,5.0037686 24.86628,4.9457119 24.608564,4.9204316 23.851536,4.7609756 23.183994,4.5913653 21.72749,4.2212935 21.050593,4.1953416 19.370076,4.4451424 18.730617,4.5401949 17.915175,4.6062642 17.399618,4.604794 16.602762,4.6025218 16.372681,4.5656527 14.952199,4.2126102 12.987945,3.7244202 12.296879,3.6347407 11.329982,3.7425561 8.1266822,4.0997452 5.7103474,6.3910785 4.8121024,9.9232535 4.7131896,10.312209 4.486628,11.447964 4.3086321,12.447154 c -0.4132691,2.31991 -0.432108,3.260892 -0.1014475,5.067186 0.3047354,1.664674 0.2986882,2.807875 -0.023465,4.435947 -0.4601253,2.325344 -0.4737754,2.706729 -0.162872,4.550669 0.8769464,5.20109 2.4587149,7.765408 5.5776228,9.042282 1.3549526,0.554715 2.6299736,0.64865 4.3066856,0.31729 z"
   id="path15" /><path
   style="fill:none;stroke-width:0.585316;stroke-opacity:0.280042"
   d="M 0.03824092,20 V 0 H 20 39.961759 V 20 40 H 20 0.03824092 Z M 13.905156,35.860528 c 0.889393,-0.175767 1.430677,-0.371213 2.461957,-0.888959 1.155557,-0.580139 2.025337,-0.864322 2.791587,-0.912096 0.672599,-0.04193 0.93579,0.0013 2.90631,0.477182 0.750712,0.181305 0.924672,0.193639 2.668752,0.189202 1.502946,-0.0038 2.090326,0.02668 3.021033,0.156878 1.500788,0.209949 2.972038,0.178252 3.696278,-0.07963 0.662766,-0.235995 1.347886,-0.697383 1.9385,-1.305463 0.93362,-0.96123 1.319899,-1.992734 1.632014,-4.35806 0.113702,-0.861679 0.323866,-1.96076 0.537501,-2.810933 0.192938,-0.767811 0.390445,-1.733955 0.438906,-2.146989 0.081,-0.690352 0.07213,-0.8493 -0.109889,-1.969181 -0.359331,-2.210847 -0.379527,-2.494143 -0.250412,-3.512667 0.201741,-1.591446 0.172676,-1.952905 -0.308596,-3.837713 -0.53064,-2.078147 -0.578308,-2.655273 -0.34713,-4.202809 0.189027,-1.2653711 0.197202,-1.6443509 0.05041,-2.3369849 C 34.710923,6.8055855 33.685678,5.3085414 32.566851,4.722194 31.037836,3.9208771 30.150961,3.8896367 27.606483,4.5474638 26.333707,4.8765164 25.45813,5.0037686 24.86628,4.9457119 24.608564,4.9204316 23.851536,4.7609756 23.183994,4.5913653 21.72749,4.2212935 21.050593,4.1953416 19.370076,4.4451424 18.730617,4.5401949 17.915175,4.6062642 17.399618,4.604794 16.602762,4.6025218 16.372681,4.5656527 14.952199,4.2126102 12.987945,3.7244202 12.296879,3.6347407 11.329982,3.7425561 8.1266822,4.0997452 5.7103474,6.3910785 4.8121024,9.9232535 4.7131896,10.312209 4.486628,11.447964 4.3086321,12.447154 c -0.4132691,2.31991 -0.432108,3.260892 -0.1014475,5.067186 0.3047354,1.664674 0.2986882,2.807875 -0.023465,4.435947 -0.4601253,2.325344 -0.4737754,2.706729 -0.162872,4.550669 0.8769464,5.20109 2.4587149,7.765408 5.5776228,9.042282 1.3549526,0.554715 2.6299736,0.64865 4.3066856,0.31729 z"
   id="path16" /><path
   style="fill:none;stroke-width:0.585316;stroke-opacity:0.280042"
   d="M 0.03824092,20 V 0 H 20 39.961759 V 20 40 H 20 0.03824092 Z M 13.905156,35.860528 c 0.889393,-0.175767 1.430677,-0.371213 2.461957,-0.888959 1.155557,-0.580139 2.025337,-0.864322 2.791587,-0.912096 0.672599,-0.04193 0.93579,0.0013 2.90631,0.477182 0.750712,0.181305 0.924672,0.193639 2.668752,0.189202 1.502946,-0.0038 2.090326,0.02668 3.021033,0.156878 1.500788,0.209949 2.972038,0.178252 3.696278,-0.07963 0.662766,-0.235995 1.347886,-0.697383 1.9385,-1.305463 0.93362,-0.96123 1.319899,-1.992734 1.632014,-4.35806 0.113702,-0.861679 0.323866,-1.96076 0.537501,-2.810933 0.192938,-0.767811 0.390445,-1.733955 0.438906,-2.146989 0.081,-0.690352 0.07213,-0.8493 -0.109889,-1.969181 -0.359331,-2.210847 -0.379527,-2.494143 -0.250412,-3.512667 0.201741,-1.591446 0.172676,-1.952905 -0.308596,-3.837713 -0.53064,-2.078147 -0.578308,-2.655273 -0.34713,-4.202809 0.189027,-1.2653711 0.197202,-1.6443509 0.05041,-2.3369849 C 34.710923,6.8055855 33.685678,5.3085414 32.566851,4.722194 31.037836,3.9208771 30.150961,3.8896367 27.606483,4.5474638 26.333707,4.8765164 25.45813,5.0037686 24.86628,4.9457119 24.608564,4.9204316 23.851536,4.7609756 23.183994,4.5913653 21.72749,4.2212935 21.050593,4.1953416 19.370076,4.4451424 18.730617,4.5401949 17.915175,4.6062642 17.399618,4.604794 16.602762,4.6025218 16.372681,4.5656527 14.952199,4.2126102 12.987945,3.7244202 12.296879,3.6347407 11.329982,3.7425561 8.1266822,4.0997452 5.7103474,6.3910785 4.8121024,9.9232535 4.7131896,10.312209 4.486628,11.447964 4.3086321,12.447154 c -0.4132691,2.31991 -0.432108,3.260892 -0.1014475,5.067186 0.3047354,1.664674 0.2986882,2.807875 -0.023465,4.435947 -0.4601253,2.325344 -0.4737754,2.706729 -0.162872,4.550669 0.8769464,5.20109 2.4587149,7.765408 5.5776228,9.042282 1.3549526,0.554715 2.6299736,0.64865 4.3066856,0.31729 z"
   id="path17" /><path
   style="fill:none;stroke-width:0.585316;stroke-opacity:0.280042"
   d="M 0.03824092,20 V 0 H 20 39.961759 V 20 40 H 20 0.03824092 Z M 13.905156,35.860528 c 0.889393,-0.175767 1.430677,-0.371213 2.461957,-0.888959 1.155557,-0.580139 2.025337,-0.864322 2.791587,-0.912096 0.672599,-0.04193 0.93579,0.0013 2.90631,0.477182 0.750712,0.181305 0.924672,0.193639 2.668752,0.189202 1.502946,-0.0038 2.090326,0.02668 3.021033,0.156878 1.500788,0.209949 2.972038,0.178252 3.696278,-0.07963 0.662766,-0.235995 1.347886,-0.697383 1.9385,-1.305463 0.93362,-0.96123 1.319899,-1.992734 1.632014,-4.35806 0.113702,-0.861679 0.323866,-1.96076 0.537501,-2.810933 0.192938,-0.767811 0.390445,-1.733955 0.438906,-2.146989 0.081,-0.690352 0.07213,-0.8493 -0.109889,-1.969181 -0.359331,-2.210847 -0.379527,-2.494143 -0.250412,-3.512667 0.201741,-1.591446 0.172676,-1.952905 -0.308596,-3.837713 -0.53064,-2.078147 -0.578308,-2.655273 -0.34713,-4.202809 0.189027,-1.2653711 0.197202,-1.6443509 0.05041,-2.3369849 C 34.710923,6.8055855 33.685678,5.3085414 32.566851,4.722194 31.037836,3.9208771 30.150961,3.8896367 27.606483,4.5474638 26.333707,4.8765164 25.45813,5.0037686 24.86628,4.9457119 24.608564,4.9204316 23.851536,4.7609756 23.183994,4.5913653 21.72749,4.2212935 21.050593,4.1953416 19.370076,4.4451424 18.730617,4.5401949 17.915175,4.6062642 17.399618,4.604794 16.602762,4.6025218 16.372681,4.5656527 14.952199,4.2126102 12.987945,3.7244202 12.296879,3.6347407 11.329982,3.7425561 8.1266822,4.0997452 5.7103474,6.3910785 4.8121024,9.9232535 4.7131896,10.312209 4.486628,11.447964 4.3086321,12.447154 c -0.4132691,2.31991 -0.432108,3.260892 -0.1014475,5.067186 0.3047354,1.664674 0.2986882,2.807875 -0.023465,4.435947 -0.4601253,2.325344 -0.4737754,2.706729 -0.162872,4.550669 0.8769464,5.20109 2.4587149,7.765408 5.5776228,9.042282 1.3549526,0.554715 2.6299736,0.64865 4.3066856,0.31729 z"
   id="path18" /><path
   style="fill:none;stroke-width:0.585316;stroke-opacity:0.280042"
   d="M 0.03824092,20 V 0 H 20 39.961759 V 20 40 H 20 0.03824092 Z M 13.905156,35.860528 c 0.889393,-0.175767 1.430677,-0.371213 2.461957,-0.888959 1.155557,-0.580139 2.025337,-0.864322 2.791587,-0.912096 0.672599,-0.04193 0.93579,0.0013 2.90631,0.477182 0.750712,0.181305 0.924672,0.193639 2.668752,0.189202 1.502946,-0.0038 2.090326,0.02668 3.021033,0.156878 1.500788,0.209949 2.972038,0.178252 3.696278,-0.07963 0.662766,-0.235995 1.347886,-0.697383 1.9385,-1.305463 0.93362,-0.96123 1.319899,-1.992734 1.632014,-4.35806 0.113702,-0.861679 0.323866,-1.96076 0.537501,-2.810933 0.192938,-0.767811 0.390445,-1.733955 0.438906,-2.146989 0.081,-0.690352 0.07213,-0.8493 -0.109889,-1.969181 -0.359331,-2.210847 -0.379527,-2.494143 -0.250412,-3.512667 0.201741,-1.591446 0.172676,-1.952905 -0.308596,-3.837713 -0.53064,-2.078147 -0.578308,-2.655273 -0.34713,-4.202809 0.189027,-1.2653711 0.197202,-1.6443509 0.05041,-2.3369849 C 34.710923,6.8055855 33.685678,5.3085414 32.566851,4.722194 31.037836,3.9208771 30.150961,3.8896367 27.606483,4.5474638 26.333707,4.8765164 25.45813,5.0037686 24.86628,4.9457119 24.608564,4.9204316 23.851536,4.7609756 23.183994,4.5913653 21.72749,4.2212935 21.050593,4.1953416 19.370076,4.4451424 18.730617,4.5401949 17.915175,4.6062642 17.399618,4.604794 16.602762,4.6025218 16.372681,4.5656527 14.952199,4.2126102 12.987945,3.7244202 12.296879,3.6347407 11.329982,3.7425561 8.1266822,4.0997452 5.7103474,6.3910785 4.8121024,9.9232535 4.7131896,10.312209 4.486628,11.447964 4.3086321,12.447154 c -0.4132691,2.31991 -0.432108,3.260892 -0.1014475,5.067186 0.3047354,1.664674 0.2986882,2.807875 -0.023465,4.435947 -0.4601253,2.325344 -0.4737754,2.706729 -0.162872,4.550669 0.8769464,5.20109 2.4587149,7.765408 5.5776228,9.042282 1.3549526,0.554715 2.6299736,0.64865 4.3066856,0.31729 z"
   id="path19" /><path
   style="fill:none;stroke-width:0.585316;stroke-opacity:0.280042"
   d="M 11.548757,34.000303 C 9.4593813,33.602128 7.8321907,32.115322 6.9656612,29.812606 6.5274675,28.64815 5.9527082,25.893992 5.875249,24.58752 5.818402,23.628704 5.9478497,22.943166 6.4406785,21.593078 6.7879712,20.641682 6.798967,20.585119 6.8024102,19.732314 6.8057097,18.915091 6.7832095,18.776823 6.484853,17.780856 5.9095652,15.860442 5.8859392,15.161091 6.31178,12.657744 6.8247425,9.6422437 7.3450552,8.3618354 8.5084089,7.252184 10.030222,5.8006196 11.996699,5.3782335 13.967166,6.0796792 c 2.098397,0.7469867 2.11373,0.7508471 2.973561,0.7486611 0.688823,-0.00175 0.971693,-0.046164 1.988527,-0.3122116 2.13368,-0.558263 2.224107,-0.5503854 5.078409,0.4424098 1.418414,0.4933586 1.981929,0.4485573 3.831725,-0.3046347 1.34261,-0.5466785 2.154717,-0.6652703 2.873565,-0.4196264 0.775756,0.2650902 1.872954,1.4323589 2.10873,2.2434005 0.08203,0.2821705 0.10628,0.551851 0.07418,0.8249424 -0.04579,0.3895921 -0.103231,0.5648451 -0.661005,2.0166917 -0.207169,0.539246 -0.251007,0.760944 -0.257095,1.300191 -0.0066,0.582722 0.01839,0.704542 0.240961,1.175458 0.136565,0.28895 0.40114,0.770785 0.587944,1.070745 0.871851,1.399975 0.954123,1.983225 0.465312,3.29873 -0.504591,1.357972 -0.575999,1.632877 -0.575999,2.217461 0,0.569818 0.01144,0.612183 0.619597,2.294967 0.206707,0.571959 0.248903,0.798249 0.249577,1.338432 7.16e-4,0.574081 -0.04049,0.770826 -0.352376,1.682601 -0.498693,1.457878 -0.515255,1.540284 -0.595951,2.965131 -0.118489,2.092147 -0.291001,2.62217 -1.124164,3.453856 -0.89029,0.888712 -1.690899,1.044187 -3.576798,0.694599 -0.845141,-0.156664 -1.035824,-0.165181 -2.409178,-0.107612 -2.664794,0.111704 -2.855259,0.08021 -4.641354,-0.767376 -2.432338,-1.154264 -2.759797,-1.104129 -5.158476,0.789777 -1.387046,1.095159 -2.809582,1.53102 -4.158105,1.274031 z m 0.999338,-2.037039 c 1.752036,-0.318988 3.096775,-2.042484 2.79408,-3.581054 -0.04918,-0.249976 -0.24499,-0.877531 -0.435135,-1.394567 -0.254989,-0.693357 -0.40213,-1.273499 -0.560671,-2.21059 -0.266148,-1.573126 -0.457527,-2.038677 -1.083509,-2.635763 -0.246057,-0.234699 -0.646348,-0.519959 -0.889535,-0.633912 -0.383724,-0.179806 -0.538419,-0.207187 -1.170533,-0.207187 -0.67488,0 -0.767562,0.01926 -1.2619505,0.262311 -1.0252611,0.504026 -1.7737338,1.494456 -1.9628675,2.597399 -0.1184912,0.690988 -0.032849,1.153997 0.4298395,2.323848 0.2747277,0.694615 0.3978881,1.156581 0.5464976,2.049869 0.1055142,0.634244 0.2603165,1.336181 0.3440052,1.559859 0.3686963,0.985429 1.1639287,1.656967 2.2504407,1.900397 0.274442,0.06149 0.537797,0.05342 0.999338,-0.03061 z m 17.682763,-0.571121 c 0.75141,-0.313959 1.073081,-1.051786 0.827238,-1.897458 -0.313275,-1.077627 -1.760907,-1.410251 -2.578658,-0.592501 -0.691352,0.691352 -0.509189,2.029405 0.333038,2.446299 0.393579,0.194817 1.011117,0.213827 1.418382,0.04366 z m -6.085483,-0.731241 c 1.221916,-0.255649 2.310063,-1.326884 2.582445,-2.542308 0.04349,-0.194063 0.07508,-0.878339 0.0702,-1.520613 -0.0088,-1.163387 0.04299,-1.611896 0.320536,-2.773889 0.08038,-0.33652 0.146384,-0.788918 0.146678,-1.005328 7.86e-4,-0.576398 -0.257842,-1.322511 -0.636529,-1.836317 -0.594264,-0.806306 -1.230887,-1.168914 -2.522451,-1.436743 -1.08213,-0.224399 -1.438712,-0.404312 -2.433859,-1.227995 -1.076389,-0.89093 -1.581101,-1.135734 -2.347874,-1.13881 -1.403292,-0.0056 -2.546016,0.792625 -3.081673,2.15271 -0.138425,0.351476 -0.173034,0.591353 -0.173676,1.203764 -7.31e-4,0.697975 0.02678,0.84503 0.314722,1.6826 0.30122,0.876176 0.382165,1.28814 0.553972,2.819373 0.140765,1.254573 0.609642,1.892591 2.168297,2.950479 0.454855,0.308718 1.188346,0.883264 1.629981,1.276768 0.939878,0.837448 1.316791,1.106189 1.787753,1.274677 0.627575,0.224517 0.997197,0.252244 1.621474,0.121632 z m 7.143306,-5.299069 c 0.443855,-0.206674 0.66283,-0.471617 0.794773,-0.961616 0.170418,-0.632885 -0.07289,-1.331734 -0.586083,-1.683378 -0.320124,-0.219352 -1.075425,-0.300263 -1.498753,-0.160551 -0.671312,0.221552 -1.051994,0.959879 -0.901205,1.747873 0.09023,0.471532 0.154924,0.606946 0.398979,0.835125 0.460348,0.430402 1.159465,0.51721 1.792289,0.222547 z M 12.394327,18.429775 c 0.85353,-0.291589 1.542058,-0.960322 1.867117,-1.813437 0.09549,-0.25061 0.197298,-0.846859 0.271611,-1.590699 0.08977,-0.898564 0.187454,-1.418272 0.399045,-2.12303 0.243639,-0.811505 0.280672,-1.038444 0.283981,-1.740228 0.0037,-0.782728 -0.0049,-0.824601 -0.284711,-1.3907973 -0.587144,-1.1880042 -1.69956,-1.8079101 -3.088754,-1.7212414 -1.26478,0.078907 -2.3478049,0.8617749 -2.7489092,1.9870587 -0.063889,0.179238 -0.1665749,0.859349 -0.2281911,1.511356 -0.082133,0.869109 -0.1880762,1.461007 -0.3969942,2.217973 -0.2411342,0.873694 -0.2849651,1.150143 -0.2849651,1.797324 0,0.668348 0.025665,0.819566 0.2034728,1.198864 0.3683827,0.785828 1.048569,1.377376 1.9370198,1.684595 0.544308,0.188218 1.491159,0.180105 2.070278,-0.01774 z m 18.889908,-0.217894 c 0.887433,-0.403105 1.144677,-1.561834 0.513313,-2.312167 -0.583452,-0.693394 -1.826654,-0.692825 -2.410555,0.0011 -0.583047,0.692912 -0.378813,1.868473 0.395591,2.277003 0.420545,0.221854 1.05647,0.236279 1.501651,0.03406 z m -5.191313,-1.692309 c 1.376325,-0.677562 2.265984,-2.250605 2.021941,-3.575076 -0.231102,-1.254235 -0.898168,-1.89454 -2.761135,-2.650364 C 24.869981,10.097871 24.130019,9.7489335 23.709369,9.5187163 21.916595,8.5375504 21.889663,8.5277247 20.993072,8.5277247 c -0.753932,0 -0.836102,0.015667 -1.313323,0.2504101 -0.627625,0.3087262 -1.215794,0.9259607 -1.546951,1.6233952 -0.22124,0.465945 -0.236048,0.552308 -0.236048,1.376673 0,0.811645 0.01622,0.910319 0.210182,1.278247 0.450471,0.854521 1.122436,1.348263 2.73295,2.008097 0.875289,0.35861 1.355252,0.596784 2.640042,1.310077 0.951083,0.528026 1.745359,0.572086 2.612998,0.144948 z m 4.691838,-6.147749 c 0.509149,-0.336938 0.746266,-0.9890078 0.602838,-1.6577919 -0.149397,-0.6966128 -0.725447,-1.13897 -1.4832,-1.13897 -1.003096,0 -1.676866,0.7623473 -1.531356,1.7326743 0.06669,0.4447506 0.185547,0.6829077 0.480882,0.9635856 0.298643,0.283823 0.569952,0.361323 1.148409,0.328046 0.358335,-0.02062 0.557074,-0.07841 0.782427,-0.227544 z"
   id="path20" /><path
   style="fill:none;stroke-width:0.585316;stroke-opacity:0.280042"
   d="M 11.548757,34.000303 C 9.4593813,33.602128 7.8321907,32.115322 6.9656612,29.812606 6.5274675,28.64815 5.9527082,25.893992 5.875249,24.58752 5.818402,23.628704 5.9478497,22.943166 6.4406785,21.593078 6.7879712,20.641682 6.798967,20.585119 6.8024102,19.732314 6.8057097,18.915091 6.7832095,18.776823 6.484853,17.780856 5.9095652,15.860442 5.8859392,15.161091 6.31178,12.657744 6.8247425,9.6422437 7.3450552,8.3618354 8.5084089,7.252184 10.030222,5.8006196 11.996699,5.3782335 13.967166,6.0796792 c 2.098397,0.7469867 2.11373,0.7508471 2.973561,0.7486611 0.688823,-0.00175 0.971693,-0.046164 1.988527,-0.3122116 2.13368,-0.558263 2.224107,-0.5503854 5.078409,0.4424098 1.418414,0.4933586 1.981929,0.4485573 3.831725,-0.3046347 1.34261,-0.5466785 2.154717,-0.6652703 2.873565,-0.4196264 0.775756,0.2650902 1.872954,1.4323589 2.10873,2.2434005 0.08203,0.2821705 0.10628,0.551851 0.07418,0.8249424 -0.04579,0.3895921 -0.103231,0.5648451 -0.661005,2.0166917 -0.207169,0.539246 -0.251007,0.760944 -0.257095,1.300191 -0.0066,0.582722 0.01839,0.704542 0.240961,1.175458 0.136565,0.28895 0.40114,0.770785 0.587944,1.070745 0.871851,1.399975 0.954123,1.983225 0.465312,3.29873 -0.504591,1.357972 -0.575999,1.632877 -0.575999,2.217461 0,0.569818 0.01144,0.612183 0.619597,2.294967 0.206707,0.571959 0.248903,0.798249 0.249577,1.338432 7.16e-4,0.574081 -0.04049,0.770826 -0.352376,1.682601 -0.498693,1.457878 -0.515255,1.540284 -0.595951,2.965131 -0.118489,2.092147 -0.291001,2.62217 -1.124164,3.453856 -0.89029,0.888712 -1.690899,1.044187 -3.576798,0.694599 -0.845141,-0.156664 -1.035824,-0.165181 -2.409178,-0.107612 -2.664794,0.111704 -2.855259,0.08021 -4.641354,-0.767376 -2.432338,-1.154264 -2.759797,-1.104129 -5.158476,0.789777 -1.387046,1.095159 -2.809582,1.53102 -4.158105,1.274031 z m 0.999338,-2.037039 c 1.752036,-0.318988 3.096775,-2.042484 2.79408,-3.581054 -0.04918,-0.249976 -0.24499,-0.877531 -0.435135,-1.394567 -0.254989,-0.693357 -0.40213,-1.273499 -0.560671,-2.21059 -0.266148,-1.573126 -0.457527,-2.038677 -1.083509,-2.635763 -0.246057,-0.234699 -0.646348,-0.519959 -0.889535,-0.633912 -0.383724,-0.179806 -0.538419,-0.207187 -1.170533,-0.207187 -0.67488,0 -0.767562,0.01926 -1.2619505,0.262311 -1.0252611,0.504026 -1.7737338,1.494456 -1.9628675,2.597399 -0.1184912,0.690988 -0.032849,1.153997 0.4298395,2.323848 0.2747277,0.694615 0.3978881,1.156581 0.5464976,2.049869 0.1055142,0.634244 0.2603165,1.336181 0.3440052,1.559859 0.3686963,0.985429 1.1639287,1.656967 2.2504407,1.900397 0.274442,0.06149 0.537797,0.05342 0.999338,-0.03061 z m 17.682763,-0.571121 c 0.75141,-0.313959 1.073081,-1.051786 0.827238,-1.897458 -0.313275,-1.077627 -1.760907,-1.410251 -2.578658,-0.592501 -0.691352,0.691352 -0.509189,2.029405 0.333038,2.446299 0.393579,0.194817 1.011117,0.213827 1.418382,0.04366 z m -6.085483,-0.731241 c 1.221916,-0.255649 2.310063,-1.326884 2.582445,-2.542308 0.04349,-0.194063 0.07508,-0.878339 0.0702,-1.520613 -0.0088,-1.163387 0.04299,-1.611896 0.320536,-2.773889 0.08038,-0.33652 0.146384,-0.788918 0.146678,-1.005328 7.86e-4,-0.576398 -0.257842,-1.322511 -0.636529,-1.836317 -0.594264,-0.806306 -1.230887,-1.168914 -2.522451,-1.436743 -1.08213,-0.224399 -1.438712,-0.404312 -2.433859,-1.227995 -1.076389,-0.89093 -1.581101,-1.135734 -2.347874,-1.13881 -1.403292,-0.0056 -2.546016,0.792625 -3.081673,2.15271 -0.138425,0.351476 -0.173034,0.591353 -0.173676,1.203764 -7.31e-4,0.697975 0.02678,0.84503 0.314722,1.6826 0.30122,0.876176 0.382165,1.28814 0.553972,2.819373 0.140765,1.254573 0.609642,1.892591 2.168297,2.950479 0.454855,0.308718 1.188346,0.883264 1.629981,1.276768 0.939878,0.837448 1.316791,1.106189 1.787753,1.274677 0.627575,0.224517 0.997197,0.252244 1.621474,0.121632 z m 7.143306,-5.299069 c 0.443855,-0.206674 0.66283,-0.471617 0.794773,-0.961616 0.170418,-0.632885 -0.07289,-1.331734 -0.586083,-1.683378 -0.320124,-0.219352 -1.075425,-0.300263 -1.498753,-0.160551 -0.671312,0.221552 -1.051994,0.959879 -0.901205,1.747873 0.09023,0.471532 0.154924,0.606946 0.398979,0.835125 0.460348,0.430402 1.159465,0.51721 1.792289,0.222547 z M 12.394327,18.429775 c 0.85353,-0.291589 1.542058,-0.960322 1.867117,-1.813437 0.09549,-0.25061 0.197298,-0.846859 0.271611,-1.590699 0.08977,-0.898564 0.187454,-1.418272 0.399045,-2.12303 0.243639,-0.811505 0.280672,-1.038444 0.283981,-1.740228 0.0037,-0.782728 -0.0049,-0.824601 -0.284711,-1.3907973 -0.587144,-1.1880042 -1.69956,-1.8079101 -3.088754,-1.7212414 -1.26478,0.078907 -2.3478049,0.8617749 -2.7489092,1.9870587 -0.063889,0.179238 -0.1665749,0.859349 -0.2281911,1.511356 -0.082133,0.869109 -0.1880762,1.461007 -0.3969942,2.217973 -0.2411342,0.873694 -0.2849651,1.150143 -0.2849651,1.797324 0,0.668348 0.025665,0.819566 0.2034728,1.198864 0.3683827,0.785828 1.048569,1.377376 1.9370198,1.684595 0.544308,0.188218 1.491159,0.180105 2.070278,-0.01774 z m 18.889908,-0.217894 c 0.887433,-0.403105 1.144677,-1.561834 0.513313,-2.312167 -0.583452,-0.693394 -1.826654,-0.692825 -2.410555,0.0011 -0.583047,0.692912 -0.378813,1.868473 0.395591,2.277003 0.420545,0.221854 1.05647,0.236279 1.501651,0.03406 z m -5.191313,-1.692309 c 1.376325,-0.677562 2.265984,-2.250605 2.021941,-3.575076 -0.231102,-1.254235 -0.898168,-1.89454 -2.761135,-2.650364 C 24.869981,10.097871 24.130019,9.7489335 23.709369,9.5187163 21.916595,8.5375504 21.889663,8.5277247 20.993072,8.5277247 c -0.753932,0 -0.836102,0.015667 -1.313323,0.2504101 -0.627625,0.3087262 -1.215794,0.9259607 -1.546951,1.6233952 -0.22124,0.465945 -0.236048,0.552308 -0.236048,1.376673 0,0.811645 0.01622,0.910319 0.210182,1.278247 0.450471,0.854521 1.122436,1.348263 2.73295,2.008097 0.875289,0.35861 1.355252,0.596784 2.640042,1.310077 0.951083,0.528026 1.745359,0.572086 2.612998,0.144948 z m 4.691838,-6.147749 c 0.509149,-0.336938 0.746266,-0.9890078 0.602838,-1.6577919 -0.149397,-0.6966128 -0.725447,-1.13897 -1.4832,-1.13897 -1.003096,0 -1.676866,0.7623473 -1.531356,1.7326743 0.06669,0.4447506 0.185547,0.6829077 0.480882,0.9635856 0.298643,0.283823 0.569952,0.361323 1.148409,0.328046 0.358335,-0.02062 0.557074,-0.07841 0.782427,-0.227544 z"
   id="path21" /><path
   style="fill:none;stroke-width:0.585316;stroke-opacity:0.280042"
   d="M 11.548757,34.000303 C 9.4593813,33.602128 7.8321907,32.115322 6.9656612,29.812606 6.5274675,28.64815 5.9527082,25.893992 5.875249,24.58752 5.818402,23.628704 5.9478497,22.943166 6.4406785,21.593078 6.7879712,20.641682 6.798967,20.585119 6.8024102,19.732314 6.8057097,18.915091 6.7832095,18.776823 6.484853,17.780856 5.9095652,15.860442 5.8859392,15.161091 6.31178,12.657744 6.8247425,9.6422437 7.3450552,8.3618354 8.5084089,7.252184 10.030222,5.8006196 11.996699,5.3782335 13.967166,6.0796792 c 2.098397,0.7469867 2.11373,0.7508471 2.973561,0.7486611 0.688823,-0.00175 0.971693,-0.046164 1.988527,-0.3122116 2.13368,-0.558263 2.224107,-0.5503854 5.078409,0.4424098 1.418414,0.4933586 1.981929,0.4485573 3.831725,-0.3046347 1.34261,-0.5466785 2.154717,-0.6652703 2.873565,-0.4196264 0.775756,0.2650902 1.872954,1.4323589 2.10873,2.2434005 0.08203,0.2821705 0.10628,0.551851 0.07418,0.8249424 -0.04579,0.3895921 -0.103231,0.5648451 -0.661005,2.0166917 -0.207169,0.539246 -0.251007,0.760944 -0.257095,1.300191 -0.0066,0.582722 0.01839,0.704542 0.240961,1.175458 0.136565,0.28895 0.40114,0.770785 0.587944,1.070745 0.871851,1.399975 0.954123,1.983225 0.465312,3.29873 -0.504591,1.357972 -0.575999,1.632877 -0.575999,2.217461 0,0.569818 0.01144,0.612183 0.619597,2.294967 0.206707,0.571959 0.248903,0.798249 0.249577,1.338432 7.16e-4,0.574081 -0.04049,0.770826 -0.352376,1.682601 -0.498693,1.457878 -0.515255,1.540284 -0.595951,2.965131 -0.118489,2.092147 -0.291001,2.62217 -1.124164,3.453856 -0.89029,0.888712 -1.690899,1.044187 -3.576798,0.694599 -0.845141,-0.156664 -1.035824,-0.165181 -2.409178,-0.107612 -2.664794,0.111704 -2.855259,0.08021 -4.641354,-0.767376 -2.432338,-1.154264 -2.759797,-1.104129 -5.158476,0.789777 -1.387046,1.095159 -2.809582,1.53102 -4.158105,1.274031 z m 0.999338,-2.037039 c 1.752036,-0.318988 3.096775,-2.042484 2.79408,-3.581054 -0.04918,-0.249976 -0.24499,-0.877531 -0.435135,-1.394567 -0.254989,-0.693357 -0.40213,-1.273499 -0.560671,-2.21059 -0.266148,-1.573126 -0.457527,-2.038677 -1.083509,-2.635763 -0.246057,-0.234699 -0.646348,-0.519959 -0.889535,-0.633912 -0.383724,-0.179806 -0.538419,-0.207187 -1.170533,-0.207187 -0.67488,0 -0.767562,0.01926 -1.2619505,0.262311 -1.0252611,0.504026 -1.7737338,1.494456 -1.9628675,2.597399 -0.1184912,0.690988 -0.032849,1.153997 0.4298395,2.323848 0.2747277,0.694615 0.3978881,1.156581 0.5464976,2.049869 0.1055142,0.634244 0.2603165,1.336181 0.3440052,1.559859 0.3686963,0.985429 1.1639287,1.656967 2.2504407,1.900397 0.274442,0.06149 0.537797,0.05342 0.999338,-0.03061 z m 17.682763,-0.571121 c 0.75141,-0.313959 1.073081,-1.051786 0.827238,-1.897458 -0.313275,-1.077627 -1.760907,-1.410251 -2.578658,-0.592501 -0.691352,0.691352 -0.509189,2.029405 0.333038,2.446299 0.393579,0.194817 1.011117,0.213827 1.418382,0.04366 z m -6.085483,-0.731241 c 1.221916,-0.255649 2.310063,-1.326884 2.582445,-2.542308 0.04349,-0.194063 0.07508,-0.878339 0.0702,-1.520613 -0.0088,-1.163387 0.04299,-1.611896 0.320536,-2.773889 0.08038,-0.33652 0.146384,-0.788918 0.146678,-1.005328 7.86e-4,-0.576398 -0.257842,-1.322511 -0.636529,-1.836317 -0.594264,-0.806306 -1.230887,-1.168914 -2.522451,-1.436743 -1.08213,-0.224399 -1.438712,-0.404312 -2.433859,-1.227995 -1.076389,-0.89093 -1.581101,-1.135734 -2.347874,-1.13881 -1.403292,-0.0056 -2.546016,0.792625 -3.081673,2.15271 -0.138425,0.351476 -0.173034,0.591353 -0.173676,1.203764 -7.31e-4,0.697975 0.02678,0.84503 0.314722,1.6826 0.30122,0.876176 0.382165,1.28814 0.553972,2.819373 0.140765,1.254573 0.609642,1.892591 2.168297,2.950479 0.454855,0.308718 1.188346,0.883264 1.629981,1.276768 0.939878,0.837448 1.316791,1.106189 1.787753,1.274677 0.627575,0.224517 0.997197,0.252244 1.621474,0.121632 z m 7.143306,-5.299069 c 0.443855,-0.206674 0.66283,-0.471617 0.794773,-0.961616 0.170418,-0.632885 -0.07289,-1.331734 -0.586083,-1.683378 -0.320124,-0.219352 -1.075425,-0.300263 -1.498753,-0.160551 -0.671312,0.221552 -1.051994,0.959879 -0.901205,1.747873 0.09023,0.471532 0.154924,0.606946 0.398979,0.835125 0.460348,0.430402 1.159465,0.51721 1.792289,0.222547 z M 12.394327,18.429775 c 0.85353,-0.291589 1.542058,-0.960322 1.867117,-1.813437 0.09549,-0.25061 0.197298,-0.846859 0.271611,-1.590699 0.08977,-0.898564 0.187454,-1.418272 0.399045,-2.12303 0.243639,-0.811505 0.280672,-1.038444 0.283981,-1.740228 0.0037,-0.782728 -0.0049,-0.824601 -0.284711,-1.3907973 -0.587144,-1.1880042 -1.69956,-1.8079101 -3.088754,-1.7212414 -1.26478,0.078907 -2.3478049,0.8617749 -2.7489092,1.9870587 -0.063889,0.179238 -0.1665749,0.859349 -0.2281911,1.511356 -0.082133,0.869109 -0.1880762,1.461007 -0.3969942,2.217973 -0.2411342,0.873694 -0.2849651,1.150143 -0.2849651,1.797324 0,0.668348 0.025665,0.819566 0.2034728,1.198864 0.3683827,0.785828 1.048569,1.377376 1.9370198,1.684595 0.544308,0.188218 1.491159,0.180105 2.070278,-0.01774 z m 18.889908,-0.217894 c 0.887433,-0.403105 1.144677,-1.561834 0.513313,-2.312167 -0.583452,-0.693394 -1.826654,-0.692825 -2.410555,0.0011 -0.583047,0.692912 -0.378813,1.868473 0.395591,2.277003 0.420545,0.221854 1.05647,0.236279 1.501651,0.03406 z m -5.191313,-1.692309 c 1.376325,-0.677562 2.265984,-2.250605 2.021941,-3.575076 -0.231102,-1.254235 -0.898168,-1.89454 -2.761135,-2.650364 C 24.869981,10.097871 24.130019,9.7489335 23.709369,9.5187163 21.916595,8.5375504 21.889663,8.5277247 20.993072,8.5277247 c -0.753932,0 -0.836102,0.015667 -1.313323,0.2504101 -0.627625,0.3087262 -1.215794,0.9259607 -1.546951,1.6233952 -0.22124,0.465945 -0.236048,0.552308 -0.236048,1.376673 0,0.811645 0.01622,0.910319 0.210182,1.278247 0.450471,0.854521 1.122436,1.348263 2.73295,2.008097 0.875289,0.35861 1.355252,0.596784 2.640042,1.310077 0.951083,0.528026 1.745359,0.572086 2.612998,0.144948 z m 4.691838,-6.147749 c 0.509149,-0.336938 0.746266,-0.9890078 0.602838,-1.6577919 -0.149397,-0.6966128 -0.725447,-1.13897 -1.4832,-1.13897 -1.003096,0 -1.676866,0.7623473 -1.531356,1.7326743 0.06669,0.4447506 0.185547,0.6829077 0.480882,0.9635856 0.298643,0.283823 0.569952,0.361323 1.148409,0.328046 0.358335,-0.02062 0.557074,-0.07841 0.782427,-0.227544 z"
   id="path22" /><path
   style="fill:#f9f9f9;stroke-width:0.585316;stroke-opacity:0.280042"
   d="m 10.750175,16.582376 c -0.456128,-0.237701 -0.6348,-0.502588 -0.671844,-0.99603 -0.0393,-0.523438 0.145774,-0.875049 0.592091,-1.124906 0.65284,-0.365473 1.422783,-0.164421 1.738756,0.454035 0.208121,0.407357 0.215058,0.699519 0.02647,1.114771 -0.281957,0.620843 -1.062788,0.876629 -1.685475,0.55213 z"
   id="path23" /><path
   style="fill:none;stroke-width:0.585316;stroke-opacity:0.280042"
   d="M 0.03824092,20 V 0 H 20 39.961759 V 20 40 H 20 0.03824092 Z M 13.905156,35.860528 c 0.889393,-0.175767 1.430677,-0.371213 2.461957,-0.888959 1.155557,-0.580139 2.025337,-0.864322 2.791587,-0.912096 0.672599,-0.04193 0.93579,0.0013 2.90631,0.477182 0.750712,0.181305 0.924672,0.193639 2.668752,0.189202 1.502946,-0.0038 2.090326,0.02668 3.021033,0.156878 1.500788,0.209949 2.972038,0.178252 3.696278,-0.07963 0.662766,-0.235995 1.347886,-0.697383 1.9385,-1.305463 0.93362,-0.96123 1.319899,-1.992734 1.632014,-4.35806 0.113702,-0.861679 0.323866,-1.96076 0.537501,-2.810933 0.192938,-0.767811 0.390445,-1.733955 0.438906,-2.146989 0.081,-0.690352 0.07213,-0.8493 -0.109889,-1.969181 -0.359331,-2.210847 -0.379527,-2.494143 -0.250412,-3.512667 0.201741,-1.591446 0.172676,-1.952905 -0.308596,-3.837713 -0.53064,-2.078147 -0.578308,-2.655273 -0.34713,-4.202809 0.189027,-1.2653711 0.197202,-1.6443509 0.05041,-2.3369849 C 34.710923,6.8055855 33.685678,5.3085414 32.566851,4.722194 31.037836,3.9208771 30.150961,3.8896367 27.606483,4.5474638 26.333707,4.8765164 25.45813,5.0037686 24.86628,4.9457119 24.608564,4.9204316 23.851536,4.7609756 23.183994,4.5913653 21.72749,4.2212935 21.050593,4.1953416 19.370076,4.4451424 18.730617,4.5401949 17.915175,4.6062642 17.399618,4.604794 16.602762,4.6025218 16.372681,4.5656527 14.952199,4.2126102 12.987945,3.7244202 12.296879,3.6347407 11.329982,3.7425561 8.1266822,4.0997452 5.7103474,6.3910785 4.8121024,9.9232535 4.7131896,10.312209 4.486628,11.447964 4.3086321,12.447154 c -0.4132691,2.31991 -0.432108,3.260892 -0.1014475,5.067186 0.3047354,1.664674 0.2986882,2.807875 -0.023465,4.435947 -0.4601253,2.325344 -0.4737754,2.706729 -0.162872,4.550669 0.8769464,5.20109 2.4587149,7.765408 5.5776228,9.042282 1.3549526,0.554715 2.6299736,0.64865 4.3066856,0.31729 z"
   id="path24" /><path
   style="fill:none;stroke-width:0.585316;stroke-opacity:0.280042"
   d="M 0.03824092,20 V 0 H 20 39.961759 V 20 40 H 20 0.03824092 Z M 13.905156,35.860528 c 0.889393,-0.175767 1.430677,-0.371213 2.461957,-0.888959 1.155557,-0.580139 2.025337,-0.864322 2.791587,-0.912096 0.672599,-0.04193 0.93579,0.0013 2.90631,0.477182 0.750712,0.181305 0.924672,0.193639 2.668752,0.189202 1.502946,-0.0038 2.090326,0.02668 3.021033,0.156878 1.500788,0.209949 2.972038,0.178252 3.696278,-0.07963 0.662766,-0.235995 1.347886,-0.697383 1.9385,-1.305463 0.93362,-0.96123 1.319899,-1.992734 1.632014,-4.35806 0.113702,-0.861679 0.323866,-1.96076 0.537501,-2.810933 0.192938,-0.767811 0.390445,-1.733955 0.438906,-2.146989 0.081,-0.690352 0.07213,-0.8493 -0.109889,-1.969181 -0.359331,-2.210847 -0.379527,-2.494143 -0.250412,-3.512667 0.201741,-1.591446 0.172676,-1.952905 -0.308596,-3.837713 -0.53064,-2.078147 -0.578308,-2.655273 -0.34713,-4.202809 0.189027,-1.2653711 0.197202,-1.6443509 0.05041,-2.3369849 C 34.710923,6.8055855 33.685678,5.3085414 32.566851,4.722194 31.037836,3.9208771 30.150961,3.8896367 27.606483,4.5474638 26.333707,4.8765164 25.45813,5.0037686 24.86628,4.9457119 24.608564,4.9204316 23.851536,4.7609756 23.183994,4.5913653 21.72749,4.2212935 21.050593,4.1953416 19.370076,4.4451424 18.730617,4.5401949 17.915175,4.6062642 17.399618,4.604794 16.602762,4.6025218 16.372681,4.5656527 14.952199,4.2126102 12.987945,3.7244202 12.296879,3.6347407 11.329982,3.7425561 8.1266822,4.0997452 5.7103474,6.3910785 4.8121024,9.9232535 4.7131896,10.312209 4.486628,11.447964 4.3086321,12.447154 c -0.4132691,2.31991 -0.432108,3.260892 -0.1014475,5.067186 0.3047354,1.664674 0.2986882,2.807875 -0.023465,4.435947 -0.4601253,2.325344 -0.4737754,2.706729 -0.162872,4.550669 0.8769464,5.20109 2.4587149,7.765408 5.5776228,9.042282 1.3549526,0.554715 2.6299736,0.64865 4.3066856,0.31729 z"
   id="path25" /><path
   style="fill:none;stroke-width:0.585316;stroke-opacity:0.280042"
   d="M 0.03824092,20 V 0 H 20 39.961759 V 20 40 H 20 0.03824092 Z M 13.905156,35.860528 c 0.889393,-0.175767 1.430677,-0.371213 2.461957,-0.888959 1.155557,-0.580139 2.025337,-0.864322 2.791587,-0.912096 0.672599,-0.04193 0.93579,0.0013 2.90631,0.477182 0.750712,0.181305 0.924672,0.193639 2.668752,0.189202 1.502946,-0.0038 2.090326,0.02668 3.021033,0.156878 1.500788,0.209949 2.972038,0.178252 3.696278,-0.07963 0.662766,-0.235995 1.347886,-0.697383 1.9385,-1.305463 0.93362,-0.96123 1.319899,-1.992734 1.632014,-4.35806 0.113702,-0.861679 0.323866,-1.96076 0.537501,-2.810933 0.192938,-0.767811 0.390445,-1.733955 0.438906,-2.146989 0.081,-0.690352 0.07213,-0.8493 -0.109889,-1.969181 -0.359331,-2.210847 -0.379527,-2.494143 -0.250412,-3.512667 0.201741,-1.591446 0.172676,-1.952905 -0.308596,-3.837713 -0.53064,-2.078147 -0.578308,-2.655273 -0.34713,-4.202809 0.189027,-1.2653711 0.197202,-1.6443509 0.05041,-2.3369849 C 34.710923,6.8055855 33.685678,5.3085414 32.566851,4.722194 31.037836,3.9208771 30.150961,3.8896367 27.606483,4.5474638 26.333707,4.8765164 25.45813,5.0037686 24.86628,4.9457119 24.608564,4.9204316 23.851536,4.7609756 23.183994,4.5913653 21.72749,4.2212935 21.050593,4.1953416 19.370076,4.4451424 18.730617,4.5401949 17.915175,4.6062642 17.399618,4.604794 16.602762,4.6025218 16.372681,4.5656527 14.952199,4.2126102 12.987945,3.7244202 12.296879,3.6347407 11.329982,3.7425561 8.1266822,4.0997452 5.7103474,6.3910785 4.8121024,9.9232535 4.7131896,10.312209 4.486628,11.447964 4.3086321,12.447154 c -0.4132691,2.31991 -0.432108,3.260892 -0.1014475,5.067186 0.3047354,1.664674 0.2986882,2.807875 -0.023465,4.435947 -0.4601253,2.325344 -0.4737754,2.706729 -0.162872,4.550669 0.8769464,5.20109 2.4587149,7.765408 5.5776228,9.042282 1.3549526,0.554715 2.6299736,0.64865 4.3066856,0.31729 z"
   id="path26" /></svg>
